HIERARCHY
ROOT root
{
	OFFSET 0.000000 0.000000 0.000000
	CHANNELS 6 Xposition Yposition Zposition Zrotation Yrotation Xrotation
	JOINT lhip
	{
		OFFSET 0.058581 -0.082280 -0.017664
		CHANNELS 3 Zrotation Yrotation Xrotation
		JOINT lknee
		{
			OFFSET 0.043451 -0.386469 0.008037
			CHANNELS 3 Zrotation Yrotation Xrotation
			JOINT lankle
			{
				OFFSET -0.014790 -0.426874 -0.037428
				CHANNELS 3 Zrotation Yrotation Xrotation
				JOINT ltoe
				{
					OFFSET 0.041054 -0.060286 0.122042
					CHANNELS 3 Zrotation Yrotation Xrotation
					End Site
					{
						OFFSET 0.000000 0.000000 0.000000
					}
				}
			}
		}
	}
	JOINT rhip
	{
		OFFSET -0.060310 -0.090513 -0.013543
		CHANNELS 3 Zrotation Yrotation Xrotation
		JOINT rknee
		{
			OFFSET -0.043257 -0.383688 -0.004843
			CHANNELS 3 Zrotation Yrotation Xrotation
			JOINT rankle
			{
				OFFSET 0.019056 -0.420046 -0.034562
				CHANNELS 3 Zrotation Yrotation Xrotation
				JOINT rtoe
				{
					OFFSET -0.034840 -0.062106 0.130323
					CHANNELS 3 Zrotation Yrotation Xrotation
					End Site
					{
						OFFSET 0.000000 0.000000 0.000000
					}
				}
			}
		}
	}
	JOINT lowerback
	{
		OFFSET 0.004439 0.124404 -0.038385
		CHANNELS 3 Zrotation Yrotation Xrotation
		JOINT upperback
		{
			OFFSET 0.004488 0.137956 0.026820
			CHANNELS 3 Zrotation Yrotation Xrotation
			JOINT chest
			{
				OFFSET -0.002265 0.056032 0.002855
				CHANNELS 3 Zrotation Yrotation Xrotation
				JOINT lowerneck
				{
					OFFSET -0.013390 0.211636 -0.033468
					CHANNELS 3 Zrotation Yrotation Xrotation
					JOINT upperneck
					{
						OFFSET 0.010113 0.088937 0.050410
						CHANNELS 3 Zrotation Yrotation Xrotation
						End Site
						{
							OFFSET 0.000000 0.000000 0.000000
						}
					}
				}
				JOINT lclavicle
				{
					OFFSET 0.071702 0.114000 -0.018898
					CHANNELS 3 Zrotation Yrotation Xrotation
					JOINT lshoulder
					{
						OFFSET 0.122921 0.045205 -0.019046
						CHANNELS 3 Zrotation Yrotation Xrotation
						JOINT lelbow
						{
							OFFSET 0.255332 -0.015649 -0.022946
							CHANNELS 3 Zrotation Yrotation Xrotation
							JOINT lwrist
							{
								OFFSET 0.265709 0.012698 -0.007375
								CHANNELS 3 Zrotation Yrotation Xrotation
								End Site
								{
									OFFSET 0.000000 0.000000 0.000000
								}
							}
						}
					}
				}
				JOINT rclavicle
				{
					OFFSET -0.082954 0.112472 -0.023707
					CHANNELS 3 Zrotation Yrotation Xrotation
					JOINT rshoulder
					{
						OFFSET -0.113228 0.046853 -0.008472
						CHANNELS 3 Zrotation Yrotation Xrotation
						JOINT relbow
						{
							OFFSET -0.260127 -0.014369 -0.031269
							CHANNELS 3 Zrotation Yrotation Xrotation
							JOINT rwrist
							{
								OFFSET -0.269108 0.006794 -0.006027
								CHANNELS 3 Zrotation Yrotation Xrotation
								End Site
								{
									OFFSET 0.000000 0.000000 0.000000
								}
							}
						}
					}
				}
			}
		}
	}
}
MOTION
Frames: 10
Frame Time: 0.033333
-1.329397 1.313992 0.994629 84.530905 0.692346 84.515236 -1.437353 2.546736 8.237286 -0.891873 -5.541955 2.900065 4.009313 10.394402 -11.589767 0.000000 -0.000000 0.000000 3.223210 -2.425845 2.365708 0.784031 -1.934749 13.770826 0.677469 -7.269540 -13.187720 0.000000 -0.000000 0.000000 1.738319 -1.182389 8.392844 2.190845 -1.759620 -0.607647 0.192341 -0.785265 1.010109 -1.012372 -5.547844 0.830777 -3.993891 -8.474762 10.924308 -28.317317 1.113128 1.608269 -59.273791 -6.805553 11.438724 5.246553 -25.155466 12.268238 -8.865990 -2.508687 -2.657414 27.056432 1.230319 3.910358 57.378165 2.159452 12.683417 -12.485237 23.338374 -4.385569 7.140345 2.052159 -6.979076 
-1.329501 1.315630 0.994498 84.829297 0.620083 84.682162 -1.559820 2.475374 8.058230 -0.974047 -5.457455 2.878980 4.115377 10.179967 -11.548839 0.000000 -0.000000 0.000000 3.048590 -2.322498 2.228534 0.876577 -1.962923 13.692862 0.708081 -7.550775 -12.959239 0.000000 -0.000000 0.000000 2.020484 -1.435727 8.461288 2.283447 -1.733268 -0.826301 0.260380 -0.752273 1.218672 -1.071875 -6.022894 0.220337 -4.171725 -8.847012 10.650059 -28.346208 1.537841 1.453084 -59.293127 -6.667789 11.451717 5.113941 -24.613983 12.547191 -9.444290 -2.735450 -2.717077 27.166295 0.777251 3.620607 57.174786 1.618303 12.589030 -12.213388 22.242730 -4.774458 7.780132 2.009896 -7.214577 
-1.329857 1.317174 0.994744 85.102398 0.545882 84.769510 -1.751230 2.400165 7.834681 -1.005558 -5.876623 3.023736 4.088755 10.426325 -11.592360 0.000000 -0.000000 0.000000 2.950938 -2.194692 1.996443 0.717359 -2.273153 13.849469 0.947520 -7.900666 -13.359955 0.000000 -0.000000 0.000000 2.258610 -1.646385 8.762421 2.489502 -1.707395 -1.168956 0.380597 -0.873085 1.372696 -1.161129 -6.725169 -0.627970 -4.470060 -9.677946 10.219057 -28.450819 1.825135 1.609621 -59.239488 -6.397368 11.554442 5.147553 -24.823787 12.440317 -8.436890 -3.387898 -2.295757 27.258138 0.509413 3.364475 57.020809 0.776671 12.613461 -11.860580 21.499736 -4.499673 7.630491 1.688397 -6.824069 
-1.329479 1.318166 0.995200 85.378714 0.334632 84.833444 -2.121118 2.200378 7.742254 -1.055714 -6.136514 3.143419 4.270429 10.714365 -11.567628 0.000000 -0.000000 0.000000 2.729820 -2.049116 2.007607 0.710220 -2.210066 13.766892 0.870482 -8.453214 -13.406813 0.000000 -0.000000 0.000000 2.230354 -1.698222 8.776080 2.864444 -1.848346 -1.124563 0.742755 -1.138248 1.548082 -1.466589 -7.972549 -1.107081 -4.845835 -10.694267 8.649645 -28.462890 2.053824 1.661274 -59.258393 -5.946696 11.544026 4.975723 -24.242262 12.957902 -9.547988 -2.764569 -3.170128 27.194100 0.524575 3.328124 57.258111 0.220020 12.195397 -11.441300 19.773015 -5.213494 8.067835 1.126640 -7.822604 
-1.328985 1.318823 0.995278 85.529249 0.242838 84.779222 -2.253010 2.178437 7.888368 -1.052452 -6.236349 2.975388 4.168452 10.626104 -11.682870 0.000000 -0.000000 0.000000 2.588395 -2.014094 2.097776 0.674149 -2.438669 13.815547 0.870934 -8.272869 -13.483495 0.000000 -0.000000 0.000000 2.171398 -1.744500 8.814693 3.075969 -1.982138 -0.989074 0.982735 -1.152399 1.593382 -1.336626 -8.813594 -1.419869 -5.013545 -11.640718 7.984041 -28.387992 2.261562 1.695149 -59.429366 -5.944503 11.631136 5.258735 -24.228754 12.817147 -9.646967 -3.148242 -2.760434 27.307691 0.573503 3.169804 57.339859 -0.012203 11.807258 -11.322521 18.836249 -6.322861 8.795727 0.964221 -8.356402 
-1.328784 1.319854 0.995428 85.722676 0.105186 84.897001 -2.466815 2.264786 7.803563 -1.018660 -6.117800 2.898077 4.262362 10.273646 -11.755693 0.000000 -0.000000 0.000000 2.337592 -2.769356 1.945310 0.648942 -1.850101 13.951401 0.810388 -8.179214 -13.236006 0.000000 -0.000000 0.000000 2.134328 -1.634390 8.698698 3.392791 -2.344086 -0.861524 1.223022 -1.289140 1.687502 -1.277874 -9.646478 -1.958286 -5.180150 -12.381157 7.180323 -28.203439 2.474683 1.750761 -59.728019 -5.773971 11.608722 5.099996 -23.809033 13.248303 -10.254780 -2.751088 -3.829186 27.664352 0.588249 3.065674 57.380734 0.063613 11.533249 -10.679882 16.678646 -6.500460 8.894002 1.113993 -8.508595 
-1.328618 1.320481 0.995531 85.813546 -0.017779 84.847373 -2.611811 2.371495 7.867110 -1.055810 -5.914447 2.845312 4.179132 10.007305 -11.922092 0.000000 -0.000000 0.000000 2.200247 -2.665514 1.965403 0.589502 -1.890998 14.077463 0.731389 -8.176113 -12.954916 0.000000 -0.000000 0.000000 2.057214 -1.660189 8.801775 3.681840 -2.502996 -0.689221 1.457671 -1.424170 1.741832 -1.123912 -10.173455 -2.630424 -5.356616 -12.999038 6.833540 -28.222519 2.666526 1.699698 -59.764005 -5.705966 11.680952 5.231039 -23.729061 13.224717 -10.469200 -2.787929 -3.663182 27.854380 0.559012 2.882782 57.535775 0.197145 11.167851 -10.438584 15.408314 -7.523206 9.658457 0.828040 -9.229576 
-1.328118 1.321368 0.995627 86.166343 -0.076336 84.616660 -2.637616 2.482144 8.036383 -1.159937 -6.531599 2.940878 4.021122 9.948660 -11.827757 0.000000 -0.000000 0.000000 2.029886 -2.359952 2.250216 0.611748 -2.574653 14.046815 0.972658 -8.221927 -13.602913 0.000000 -0.000000 0.000000 1.969498 -1.903668 9.148541 3.943013 -2.749952 -0.617301 1.714705 -1.512030 1.743006 -1.024278 -9.945599 -2.808885 -5.407387 -13.211268 6.379577 -28.025159 2.646143 1.734462 -60.055744 -5.612388 11.827470 5.388442 -23.385433 13.411185 -10.947183 -2.756839 -4.074761 28.127691 0.552302 2.759161 57.707517 0.478158 10.614373 -10.175761 14.363440 -9.003199 9.835788 1.361093 -10.574272 
-1.327667 1.321687 0.995734 86.000767 -0.186120 84.549036 -2.659970 2.592442 8.366776 -1.234879 -6.509422 2.613900 3.986182 9.784109 -11.890006 0.000000 -0.000000 0.000000 1.884103 -2.210149 2.301467 0.624285 -2.557587 14.116596 1.251775 -8.029165 -13.911901 0.000000 -0.000000 0.000000 1.804022 -1.788582 9.174229 4.139735 -2.737855 -0.395602 1.973824 -1.664344 1.742590 -0.790418 -9.931660 -3.019578 -5.537050 -13.401113 6.083500 -28.078641 2.631852 1.850299 -59.955967 -5.550136 11.850119 5.450085 -23.616416 13.317642 -11.103890 -2.853112 -4.104824 28.454662 0.433465 2.677588 58.005658 0.607299 10.308338 -10.428179 14.521526 -10.289077 10.051638 1.528665 -11.379136 
-1.326994 1.321825 0.995730 86.129788 -0.109205 84.325408 -2.291367 2.723716 8.924992 -1.556807 -6.690260 2.180283 3.692662 9.529168 -11.738777 0.000000 -0.000000 0.000000 1.829248 -1.549877 2.519088 0.909490 -3.355759 14.352402 1.393831 -8.040459 -14.171187 0.000000 -0.000000 0.000000 1.737299 -2.003383 9.403758 4.351873 -2.837821 -0.151271 2.152551 -1.652160 1.758653 -0.598288 -9.330022 -2.796541 -5.434650 -13.053138 6.120300 -27.869486 2.507094 2.000710 -60.081072 -5.684075 11.852212 5.520866 -23.916559 13.296344 -10.719015 -3.155937 -4.379156 28.826438 0.311285 2.657704 58.303648 0.727504 10.567876 -10.918943 15.534079 -9.666350 9.156755 1.661923 -11.177972 
